<?xml version="1.0" encoding="UTF-8"?>
<svg width="512px" height="432px" viewBox="0 0 512 432" version="1.1" xmlns="http://www.w3.org/2000/svg" xmlns:xlink="http://www.w3.org/1999/xlink">
    <!-- Generator: Sketch 44.1 (41455) - http://www.bohemiancoding.com/sketch -->
    <title>Group</title>
    <desc>Created with Sketch.</desc>
    <defs></defs>
    <g id="Page-1" stroke="none" stroke-width="1" fill="none" fill-rule="evenodd">
        <g id="Group" fill-rule="nonzero">
            <g id="home" fill="#575757">
                <polygon id="Shape" points="512 256 416 160 416 16 352 16 352 96 256 0 0 256 0 272 64 272 64 432 224 432 224 336 288 336 288 432 448 432 448 272 512 272"></polygon>
            </g>
            <g id="robot" transform="translate(67.000000, 53.000000)" fill="#94a3b8">
                <path d="M173.021643,65.9134297 L147.480596,65.9134297 C142.930375,65.9134297 139.241787,69.6020176 139.241787,74.1522383 C139.241787,78.702459 142.930375,82.3910469 147.480596,82.3910469 L173.021643,82.3910469 C177.571863,82.3910469 181.260451,78.702459 181.260451,74.1522383 C181.260451,69.6020176 177.571863,65.9134297 173.021643,65.9134297 Z" id="Shape"></path>
                <path d="M214.217166,49.4350723 C200.587971,49.4350723 189.5,60.523043 189.5,74.1522383 C189.5,87.7814336 200.587971,98.8694043 214.217166,98.8694043 C227.846361,98.8694043 238.934332,87.7814336 238.934332,74.1522383 C238.935072,60.523043 227.846361,49.4350723 214.217166,49.4350723 Z M214.217166,82.3910469 C209.674348,82.3910469 205.978357,78.6950566 205.978357,74.1522383 C205.978357,69.6094199 209.674348,65.9134297 214.217166,65.9134297 C218.759984,65.9134297 222.455975,69.6094199 222.455975,74.1522383 C222.456715,78.6950566 218.760725,82.3910469 214.217166,82.3910469 Z" id="Shape"></path>
                <path d="M354.282834,297.651943 L354.282834,205.346937 C368.48127,201.679076 379,188.761986 379,173.433953 C379,155.261939 364.216039,140.477238 346.043285,140.477238 L321.326119,140.477238 C321.164008,140.477238 321.004857,140.492043 320.844967,140.501666 C320.685076,140.493523 320.526666,140.477238 320.364555,140.477238 L247.173881,140.477238 L247.173881,131.826119 L263.652238,131.826119 C268.201719,131.826119 271.891047,128.137531 271.891047,123.587311 L271.891047,65.295334 C271.891047,29.2910742 242.599232,0 206.596453,0 L172.404287,0 C136.400027,0 107.108953,29.2910742 107.108953,65.295334 L107.108953,123.587311 C107.108953,128.137531 110.797541,131.826119 115.347762,131.826119 L131.826119,131.826119 L131.826119,140.477238 L58.6354453,140.477238 C58.473334,140.477238 58.3156641,140.493523 58.1557734,140.501666 C57.9958828,140.492783 57.8367324,140.477238 57.6746211,140.477238 L32.9567148,140.477238 C14.7839609,140.477238 0,155.261199 0,173.433953 C0,188.761986 10.5187305,201.679076 24.717166,205.347678 L24.717166,297.651943 C10.5187305,301.319805 0,314.236895 0,329.564928 C0,334.115148 3.68858789,337.803736 8.23880859,337.803736 C12.7890293,337.803736 16.4776172,334.115148 16.4776172,329.564928 C16.4776172,320.478551 23.8695977,313.08657 32.9559746,313.08657 C42.0423516,313.08657 49.434332,320.478551 49.434332,329.564928 C49.434332,334.115148 53.1229199,337.803736 57.6731406,337.803736 C62.2233613,337.803736 65.9119492,334.115148 65.9119492,329.564928 C65.9119492,314.236895 55.3932187,301.319805 41.1947832,297.651203 L41.1947832,206.389928 L49.4335918,206.389928 L49.4335918,239.072016 C49.4335918,288.969734 90.0287852,329.564928 139.926504,329.564928 L148.302996,329.564928 L148.302996,337.803736 C148.304477,360.519309 166.784428,379 189.5,379 C212.215572,379 230.695523,360.519309 230.695523,337.804477 L230.695523,329.565668 L239.072016,329.565668 C288.969734,329.565668 329.564928,288.970475 329.564928,239.072756 L329.564928,206.390668 L337.803736,206.390668 L337.803736,297.651943 C323.605301,301.319805 313.08657,314.237635 313.08657,329.565668 C313.08657,334.115889 316.775898,337.804477 321.325379,337.804477 C325.874859,337.804477 329.564187,334.115889 329.564187,329.565668 C329.564187,320.479291 336.956168,313.087311 346.042545,313.087311 C355.128922,313.087311 362.520902,320.479291 362.520902,329.565668 C362.520902,334.115889 366.21023,337.804477 370.759711,337.804477 C375.309191,337.804477 378.99852,334.115889 378.99852,329.565668 C379,314.236895 368.48127,301.319805 354.282834,297.651943 Z M49.4350723,189.912311 L32.9567148,189.912311 C23.8703379,189.912311 16.4783574,182.52033 16.4783574,173.433953 C16.4783574,164.347576 23.8703379,156.955596 32.9567148,156.955596 L49.4350723,156.955596 L49.4350723,189.912311 Z M123.587311,115.347762 L123.587311,65.295334 C123.587311,38.3781914 145.487145,16.4783574 172.404287,16.4783574 L206.596453,16.4783574 C233.514336,16.4783574 255.41343,38.3781914 255.41343,65.295334 L255.41343,115.347762 L238.935072,115.347762 L140.064928,115.347762 L123.587311,115.347762 Z M230.695523,131.826119 L230.695523,140.477238 L148.304477,140.477238 L148.304477,131.826119 L230.695523,131.826119 Z M214.217166,337.804477 C214.217166,351.433672 203.129195,362.521643 189.5,362.521643 C175.870805,362.521643 164.782834,351.433672 164.782834,337.804477 L164.782834,329.565668 L214.217906,329.565668 L214.217906,337.804477 L214.217166,337.804477 Z M313.087311,198.151119 L313.087311,239.072756 C313.087311,279.884098 279.884098,313.087311 239.072756,313.087311 L222.456715,313.087311 L156.544025,313.087311 L139.927984,313.087311 C99.1159023,313.087311 65.9134297,279.884098 65.9134297,239.072756 L65.9134297,198.151119 L65.9134297,156.955596 L140.065668,156.955596 L238.935072,156.955596 L313.087311,156.955596 L313.087311,198.151119 Z M329.564928,189.912311 L329.564928,156.955596 L346.043285,156.955596 C355.129662,156.955596 362.521643,164.347576 362.521643,173.433953 C362.521643,182.52033 355.129662,189.912311 346.043285,189.912311 L329.564928,189.912311 Z" id="Shape"></path>
                <path d="M255.247617,204.371309 C255.149166,203.844262 254.984094,203.324617 254.777568,202.830881 C254.571783,202.328262 254.316402,201.85007 254.019568,201.405189 C253.723475,200.952166 253.377785,200.531713 252.998045,200.152713 C252.619045,199.773713 252.198592,199.428023 251.745568,199.131189 C251.300688,198.834355 250.822496,198.578975 250.319877,198.373189 C249.8254,198.167404 249.307236,198.002332 248.780189,197.903881 C247.717213,197.689953 246.629809,197.689953 245.566832,197.903881 C245.039785,198.003072 244.520141,198.167404 244.026404,198.373189 C243.523785,198.578975 243.047074,198.834355 242.602193,199.131189 C242.14843,199.428023 241.727977,199.773713 241.348977,200.152713 C240.969977,200.531713 240.624287,200.952166 240.327453,201.405189 C240.031359,201.85007 239.775238,202.328262 239.569453,202.830881 C239.363668,203.325357 239.198596,203.844262 239.100885,204.371309 C238.992811,204.898355 238.935813,205.442428 238.935813,205.977617 C238.935813,206.512807 238.992811,207.056879 239.100885,207.583926 C239.198596,208.110973 239.363668,208.630617 239.569453,209.124354 C239.775238,209.626973 240.031359,210.105164 240.327453,210.550045 C240.624287,211.003068 240.969977,211.423521 241.348977,211.802521 C241.727977,212.181521 242.14843,212.527211 242.602193,212.824045 C243.047074,213.120879 243.523785,213.37626 244.026404,213.582045 C244.521621,213.78783 245.039785,213.952902 245.566832,214.051354 C246.093879,214.158688 246.637951,214.216426 247.173141,214.216426 C247.70759,214.216426 248.252402,214.158688 248.779449,214.051354 C249.306496,213.952162 249.826141,213.78783 250.319137,213.582045 C250.821756,213.37626 251.299947,213.120879 251.744828,212.824045 C252.197852,212.527211 252.618305,212.181521 252.997305,211.802521 C253.377045,211.423521 253.723475,211.003068 254.018828,210.550045 C254.315662,210.105164 254.571043,209.626973 254.776828,209.124354 C254.982613,208.629877 255.147686,208.110973 255.246137,207.583926 C255.353471,207.056879 255.411209,206.512807 255.411209,205.977617 C255.411949,205.442428 255.354211,204.899096 255.247617,204.371309 Z" id="Shape"></path>
                <path d="M288.369404,173.433953 L205.978357,173.433953 C201.428877,173.433953 197.739549,177.122541 197.739549,181.672762 L197.739549,205.978357 C197.739549,210.528578 201.428877,214.217166 205.978357,214.217166 L222.456715,214.217166 C227.006195,214.217166 230.695523,210.528578 230.695523,205.978357 C230.695523,201.428137 227.006195,197.739549 222.456715,197.739549 L214.217906,197.739549 L214.217906,189.912311 L280.130596,189.912311 L280.130596,197.739549 L271.891787,197.739549 C267.342307,197.739549 263.652979,201.428137 263.652979,205.978357 C263.652979,210.528578 267.342307,214.217166 271.891787,214.217166 L288.370145,214.217166 C292.919625,214.217166 296.608953,210.528578 296.608953,205.978357 L296.608953,181.672762 C296.608953,177.122541 292.918885,173.433953 288.369404,173.433953 Z" id="Shape"></path>
            </g>
        </g>
    </g>
</svg>
