<?xml version="1.0" encoding="UTF-8"?>
<svg width="379px" height="330px" viewBox="0 0 379 330" version="1.1" xmlns="http://www.w3.org/2000/svg" xmlns:xlink="http://www.w3.org/1999/xlink">
    <!-- Generator: Sketch 44.1 (41455) - http://www.bohemiancoding.com/sketch -->
    <title>botDiamond</title>
    <desc>Created with Sketch.</desc>
    <defs>
        <radialGradient cx="50%" cy="-18.3090884%" fx="50%" fy="-18.3090884%" r="113.852886%" gradientTransform="translate(0.500000,-0.183091),scale(0.849291,1.000000),rotate(90.000000),translate(-0.500000,0.183091)" id="radialGradient-1">
            <stop stop-color="#12D114FF" offset="0%"></stop>
            <stop stop-color="#FFFFFF" offset="19.4704608%"></stop>
            <stop stop-color="#0089FF" offset="100%"></stop>
        </radialGradient>
    </defs>
    <g id="Page-1" stroke="none" stroke-width="1" fill="none" fill-rule="evenodd">
        <g id="botDiamond" fill-rule="nonzero">
            <g id="robot" fill="#94a3b8">
                <path d="M173.021643,65.9134297 L147.480596,65.9134297 C142.930375,65.9134297 139.241787,69.6020176 139.241787,74.1522383 C139.241787,78.702459 142.930375,82.3910469 147.480596,82.3910469 L173.021643,82.3910469 C177.571863,82.3910469 181.260451,78.702459 181.260451,74.1522383 C181.260451,69.6020176 177.571863,65.9134297 173.021643,65.9134297 Z" id="Shape"></path>
                <path d="M214.217166,49.4350723 C200.587971,49.4350723 189.5,60.523043 189.5,74.1522383 C189.5,87.7814336 200.587971,98.8694043 214.217166,98.8694043 C227.846361,98.8694043 238.934332,87.7814336 238.934332,74.1522383 C238.935072,60.523043 227.846361,49.4350723 214.217166,49.4350723 Z M214.217166,82.3910469 C209.674348,82.3910469 205.978357,78.6950566 205.978357,74.1522383 C205.978357,69.6094199 209.674348,65.9134297 214.217166,65.9134297 C218.759984,65.9134297 222.455975,69.6094199 222.455975,74.1522383 C222.456715,78.6950566 218.760725,82.3910469 214.217166,82.3910469 Z" id="Shape"></path>
                <path d="M354.282834,205.346938 C368.48127,201.679076 379,188.761986 379,173.433953 C379,155.261939 364.216039,140.477238 346.043285,140.477238 L321.326119,140.477238 C320.898757,140.488095 296.181344,140.488095 247.173881,140.477238 L247.173881,131.826119 L263.652238,131.826119 C268.201719,131.826119 271.891047,128.137531 271.891047,123.587311 L271.891047,65.295334 C271.891047,29.2910742 242.599232,5.68434189e-14 206.596453,5.68434189e-14 L172.404287,5.68434189e-14 C136.400027,5.68434189e-14 107.108953,29.2910742 107.108953,65.295334 L107.108953,123.587311 C107.108953,128.137531 110.797541,131.826119 115.347762,131.826119 L131.826119,131.826119 L131.826119,140.477238 L58.6354453,140.477238 C58.2090703,140.487602 49.6494935,140.487602 32.9567148,140.477238 C14.7839609,140.477238 8.52651283e-14,155.261199 8.52651283e-14,173.433953 C8.52651283e-14,188.761986 10.5187305,201.679076 24.717166,205.347678 L41.1947832,206.389928 L49.4335918,206.389928 L49.4335918,239.072016 C49.4335918,288.969734 90.0287852,329.564928 139.926504,329.564928 L148.302996,329.564928 L230.695523,329.565668 L239.072016,329.565668 C288.969734,329.565668 329.564928,288.970475 329.564928,239.072756 L329.564928,206.390668 L337.803736,206.390668 L354.282834,205.346938 Z M49.4350723,189.912311 L32.9567148,189.912311 C23.8703379,189.912311 16.4783574,182.52033 16.4783574,173.433953 C16.4783574,164.347576 23.8703379,156.955596 32.9567148,156.955596 L49.4350723,156.955596 L49.4350723,189.912311 Z M123.587311,115.347762 L123.587311,65.295334 C123.587311,38.3781914 145.487145,16.4783574 172.404287,16.4783574 L206.596453,16.4783574 C233.514336,16.4783574 255.41343,38.3781914 255.41343,65.295334 L255.41343,115.347762 L238.935072,115.347762 L140.064928,115.347762 L123.587311,115.347762 Z M230.695523,131.826119 L230.695523,140.477238 L148.304477,140.477238 L148.304477,131.826119 L230.695523,131.826119 Z M313.087311,198.151119 L313.087311,239.072756 C313.087311,279.884098 279.884098,313.087311 239.072756,313.087311 L222.456715,313.087311 L156.544025,313.087311 L139.927984,313.087311 C99.1159023,313.087311 65.9134297,279.884098 65.9134297,239.072756 L65.9134297,198.151119 L65.9134297,156.955596 L140.065668,156.955596 L238.935072,156.955596 L313.087311,156.955596 L313.087311,198.151119 Z M329.564928,189.912311 L329.564928,156.955596 L346.043285,156.955596 C355.129662,156.955596 362.521643,164.347576 362.521643,173.433953 C362.521643,182.52033 355.129662,189.912311 346.043285,189.912311 L329.564928,189.912311 Z" id="Shape"></path>
                <path d="M255.247617,204.371309 C255.149166,203.844262 254.984094,203.324617 254.777568,202.830881 C254.571783,202.328262 254.316402,201.85007 254.019568,201.405189 C253.723475,200.952166 253.377785,200.531713 252.998045,200.152713 C252.619045,199.773713 252.198592,199.428023 251.745568,199.131189 C251.300688,198.834355 250.822496,198.578975 250.319877,198.373189 C249.8254,198.167404 249.307236,198.002332 248.780189,197.903881 C247.717213,197.689953 246.629809,197.689953 245.566832,197.903881 C245.039785,198.003072 244.520141,198.167404 244.026404,198.373189 C243.523785,198.578975 243.047074,198.834355 242.602193,199.131189 C242.14843,199.428023 241.727977,199.773713 241.348977,200.152713 C240.969977,200.531713 240.624287,200.952166 240.327453,201.405189 C240.031359,201.85007 239.775238,202.328262 239.569453,202.830881 C239.363668,203.325357 239.198596,203.844262 239.100885,204.371309 C238.992811,204.898355 238.935813,205.442428 238.935813,205.977617 C238.935813,206.512807 238.992811,207.056879 239.100885,207.583926 C239.198596,208.110973 239.363668,208.630617 239.569453,209.124354 C239.775238,209.626973 240.031359,210.105164 240.327453,210.550045 C240.624287,211.003068 240.969977,211.423521 241.348977,211.802521 C241.727977,212.181521 242.14843,212.527211 242.602193,212.824045 C243.047074,213.120879 243.523785,213.37626 244.026404,213.582045 C244.521621,213.78783 245.039785,213.952902 245.566832,214.051354 C246.093879,214.158688 246.637951,214.216426 247.173141,214.216426 C247.70759,214.216426 248.252402,214.158688 248.779449,214.051354 C249.306496,213.952162 249.826141,213.78783 250.319137,213.582045 C250.821756,213.37626 251.299947,213.120879 251.744828,212.824045 C252.197852,212.527211 252.618305,212.181521 252.997305,211.802521 C253.377045,211.423521 253.723475,211.003068 254.018828,210.550045 C254.315662,210.105164 254.571043,209.626973 254.776828,209.124354 C254.982613,208.629877 255.147686,208.110973 255.246137,207.583926 C255.353471,207.056879 255.411209,206.512807 255.411209,205.977617 C255.411949,205.442428 255.354211,204.899096 255.247617,204.371309 Z" id="Shape"></path>
                <path d="M288.369404,173.433953 L205.978357,173.433953 C201.428877,173.433953 197.739549,177.122541 197.739549,181.672762 L197.739549,205.978357 C197.739549,210.528578 201.428877,214.217166 205.978357,214.217166 L222.456715,214.217166 C227.006195,214.217166 230.695523,210.528578 230.695523,205.978357 C230.695523,201.428137 227.006195,197.739549 222.456715,197.739549 L214.217906,197.739549 L214.217906,189.912311 L280.130596,189.912311 L280.130596,197.739549 L271.891787,197.739549 C267.342307,197.739549 263.652979,201.428137 263.652979,205.978357 C263.652979,210.528578 267.342307,214.217166 271.891787,214.217166 L288.370145,214.217166 C292.919625,214.217166 296.608953,210.528578 296.608953,205.978357 L296.608953,181.672762 C296.608953,177.122541 292.918885,173.433953 288.369404,173.433953 Z" id="Shape"></path>
            </g>
            <g id="diamond" transform="translate(198.399256, 268.311778) rotate(-12.000000) translate(-198.399256, -268.311778) translate(125.399256, 205.811778)">
                <path d="M73,124.498111 C72.3496364,124.498111 71.7258182,124.210262 71.3099394,123.709849 L0.522060606,39.569556 C-0.141575758,38.7812943 -0.176969697,37.6387577 0.442424242,36.8150685 L26.9878788,1.38757676 C27.4037576,0.829593765 28.0629697,0.501889466 28.7575758,0.501889466 L117.242424,0.501889466 C117.93703,0.501889466 118.596242,0.829593765 119.012121,1.38757676 L145.557576,36.8150685 C146.17697,37.6387577 146.141576,38.7812943 145.477939,39.569556 L74.6900606,123.709849 C74.2741818,124.210262 73.6503636,124.498111 73,124.498111 Z" id="Shape" fill="url(#radialGradient-1)"></path>
                <path d="M73,124.498111 C72.3496364,124.498111 71.7258182,124.210262 71.3099394,123.709849 L0.522060606,39.569556 C-0.141575758,38.7812943 -0.176969697,37.6387577 0.442424242,36.8150685 L26.9878788,1.38757676 C27.4037576,0.829593765 28.0629697,0.501889466 28.7575758,0.501889466 L117.242424,0.501889466 C117.93703,0.501889466 118.596242,0.829593765 119.012121,1.38757676 L145.557576,36.8150685 C146.17697,37.6387577 146.141576,38.7812943 145.477939,39.569556 L74.6900606,123.709849 C74.2741818,124.210262 73.6503636,124.498111 73,124.498111 Z M5.03921212,38.0638876 L73,118.847426 L140.960788,38.0638876 L116.136364,4.93032593 L29.8636364,4.93032593 L5.03921212,38.0638876 Z" id="Shape" fill="#7DB5FF"></path>
                <path d="M143.787879,40.3578177 L2.21212121,40.3578177 C0.991030303,40.3578177 0,39.3702763 0,38.1435994 C0,36.9169225 0.991030303,35.9293812 2.21212121,35.9293812 L143.787879,35.9293812 C145.00897,35.9293812 146,36.921351 146,38.1435994 C146,39.3658479 145.00897,40.3578177 143.787879,40.3578177 Z" id="Shape" fill="#7DB5FF"></path>
                <path d="M73,124.498111 C72.7787879,124.498111 72.5531515,124.467111 72.3363636,124.396256 C71.1683636,124.028696 70.5224242,122.784306 70.8940606,121.619627 L97.4395152,37.479334 C97.8067273,36.3146552 99.0587879,35.6592466 100.213515,36.0356637 C101.381515,36.4032239 102.027455,37.6476145 101.655818,38.8122933 L75.1103636,122.952586 C74.8139394,123.895843 73.9379394,124.498111 73,124.498111 Z" id="Shape" fill="#7DB5FF"></path>
                <path d="M73,124.498111 C72.0620606,124.498111 71.1860606,123.895843 70.8896364,122.948158 L44.3441818,38.8078649 C43.9769697,37.6431861 44.6229091,36.3987955 45.7864848,36.0312352 C46.9544848,35.6548181 48.1932727,36.3102267 48.5604848,37.4749055 L75.1059394,121.615198 C75.4731515,122.779877 74.8272121,124.024268 73.6636364,124.391828 C73.4468485,124.467111 73.2212121,124.498111 73,124.498111 Z" id="Shape" fill="#7DB5FF"></path>
                <path d="M46.4545455,40.3578177 C45.6404848,40.3578177 44.8618182,39.9105456 44.4724848,39.1355692 L26.7755152,3.70807747 C26.2313333,2.61425366 26.6737576,1.28572272 27.7665455,0.736596599 C28.8637576,0.191898914 30.1866061,0.63474256 30.7352121,1.72856637 L48.4321818,37.1560581 C48.9807879,38.2498819 48.5339394,39.5784128 47.4411515,40.127539 C47.1270303,40.2825342 46.7907879,40.3578177 46.4545455,40.3578177 Z" id="Shape" fill="#7DB5FF"></path>
                <path d="M46.4545455,40.3578177 C45.9944242,40.3578177 45.5298788,40.2116793 45.131697,39.914974 C44.1539394,39.1798536 43.9548485,37.793753 44.6892727,36.8150685 L71.2347273,1.38757676 C71.9691515,0.4088923 73.3539394,0.214041096 74.331697,0.944733113 C75.3094545,1.67985357 75.5085455,3.06595418 74.7741212,4.04463864 L48.2286667,39.4721304 C47.7906667,40.0522556 47.1270303,40.3578177 46.4545455,40.3578177 Z" id="Shape" fill="#7DB5FF"></path>
                <path d="M99.5454545,40.3578177 C98.8729697,40.3578177 98.2093333,40.0522556 97.7757576,39.4721304 L71.230303,4.04463864 C70.4958788,3.06595418 70.6949697,1.67985357 71.6727273,0.944733113 C72.6460606,0.205184223 74.0352727,0.404463864 74.769697,1.38757676 L101.315152,36.8150685 C102.049576,37.793753 101.850485,39.1798536 100.872727,39.914974 C100.474545,40.2161077 100.01,40.3578177 99.5454545,40.3578177 Z" id="Shape" fill="#7DB5FF"></path>
                <path d="M99.5454545,40.3578177 C99.2136364,40.3578177 98.8773939,40.2825342 98.5588485,40.1231105 C97.4660606,39.5739844 97.0236364,38.2454535 97.5678182,37.1516297 L115.264788,1.72413793 C115.813394,0.630314124 117.136242,0.187470477 118.233455,0.732168162 C119.326242,1.28129428 119.768667,2.60982522 119.224485,3.70364903 L101.527515,39.1311408 C101.133758,39.9105456 100.355091,40.3578177 99.5454545,40.3578177 Z" id="Shape" fill="#7DB5FF"></path>
            </g>
            <g id="Group-2" transform="translate(30.000000, 192.000000)" fill="#94a3b8">
                <path d="M133.389678,14.0595657 L51.8898484,57.3937935 C55.3170808,71.6522246 48.8502122,87.0039187 35.3163622,94.1999944 C31.2987558,96.3361936 26.3102389,94.811051 24.1740397,90.7934445 C22.0378404,86.7758381 23.5629831,81.7873212 27.5805895,79.651122 C35.6033842,75.3853264 38.6597909,65.3882704 34.3939953,57.3654758 C30.1281997,49.3426811 20.1311438,46.2862744 12.1083491,50.5520699 C8.09074269,52.6882692 3.10222577,51.1631265 0.96602654,47.1455201 C-1.17017268,43.1279137 0.354969993,38.1393967 4.37257641,36.0031975 C17.9064264,28.8071218 34.2497846,32.0304032 44.1547293,42.8445736 L124.733653,-2.13162821e-14 L133.389678,14.0595657 Z" id="Path-Copy-2" transform="translate(66.694838, 47.583011) scale(-1, 1) translate(-66.694838, -47.583011) "></path>
                <path d="M317.389679,14.0595657 L235.889849,57.3937935 C239.317082,71.6522246 232.850213,87.0039187 219.316363,94.1999944 C215.298757,96.3361936 210.31024,94.811051 208.174041,90.7934445 C206.037841,86.7758381 207.562984,81.7873212 211.580591,79.651122 C219.603385,75.3853264 222.659792,65.3882704 218.393996,57.3654758 C214.128201,49.3426811 204.131145,46.2862744 196.10835,50.5520699 C192.090744,52.6882692 187.102227,51.1631265 184.966028,47.1455201 C182.829828,43.1279137 184.354971,38.1393967 188.372577,36.0031975 C201.906427,28.8071218 218.249786,32.0304032 228.15473,42.8445736 L308.733654,-2.13162821e-14 L317.389679,14.0595657 Z" id="Path-Copy"></path>
            </g>
        </g>
    </g>
</svg>
