<?xml version="1.0" encoding="UTF-8"?>
<svg width="512px" height="432px" viewBox="0 0 512 432" version="1.1" xmlns="http://www.w3.org/2000/svg" xmlns:xlink="http://www.w3.org/1999/xlink">
    <!-- Generator: Sketch 44.1 (41455) - http://www.bohemiancoding.com/sketch -->
    <title>Group</title>
    <desc>Created with Sketch.</desc>
    <defs>
        <radialGradient cx="50%" cy="-18.3090884%" fx="50%" fy="-18.3090884%" r="113.852886%" gradientTransform="translate(0.500000,-0.183091),scale(0.849084,1.000000),rotate(90.000000),translate(-0.500000,0.183091)" id="radialGradient-1">
            <stop stop-color="#12D114FF" offset="0%"></stop>
            <stop stop-color="#FFFFFF" offset="19.4704608%"></stop>
            <stop stop-color="#0089FF" offset="100%"></stop>
        </radialGradient>
    </defs>
    <g id="Page-1" stroke="none" stroke-width="1" fill="none" fill-rule="evenodd">
        <g id="Group" fill-rule="nonzero">
            <g id="home" fill="#575757">
                <polygon id="Shape" points="512 256 416 160 416 16 352 16 352 96 256 0 0 256 0 272 64 272 64 432 224 432 224 336 288 336 288 432 448 432 448 272 512 272"></polygon>
            </g>
            <g id="diamond" transform="translate(4.000000, 3.000000)">
                <path d="M252,428.468756 C249.754909,428.468756 247.601455,427.47533 246.165818,425.748296 L1.80218182,135.362127 C-0.488727273,132.641667 -0.610909091,128.698529 1.52727273,125.855801 L93.1636364,3.58794056 C94.5992727,1.66222176 96.8749091,0.531244046 99.2727273,0.531244046 L404.727273,0.531244046 C407.125091,0.531244046 409.400727,1.66222176 410.836364,3.58794056 L502.472727,125.855801 C504.610909,128.698529 504.488727,132.641667 502.197818,135.362127 L257.834182,425.748296 C256.398545,427.47533 254.245091,428.468756 252,428.468756 Z" id="Shape" fill="url(#radialGradient-1)"></path>
                <path d="M252,428.468756 C249.754909,428.468756 247.601455,427.47533 246.165818,425.748296 L1.80218182,135.362127 C-0.488727273,132.641667 -0.610909091,128.698529 1.52727273,125.855801 L93.1636364,3.58794056 C94.5992727,1.66222176 96.8749091,0.531244046 99.2727273,0.531244046 L404.727273,0.531244046 C407.125091,0.531244046 409.400727,1.66222176 410.836364,3.58794056 L502.472727,125.855801 C504.610909,128.698529 504.488727,132.641667 502.197818,135.362127 L257.834182,425.748296 C256.398545,427.47533 254.245091,428.468756 252,428.468756 Z M17.3956364,130.165743 L252,408.967032 L486.604364,130.165743 L400.909091,15.8147266 L103.090909,15.8147266 L17.3956364,130.165743 Z" id="Shape" fill="#7DB5FF"></path>
                <path d="M496.363636,138.082587 L7.63636364,138.082587 C3.42109091,138.082587 0,134.674371 0,130.440846 C0,126.207321 3.42109091,122.799105 7.63636364,122.799105 L496.363636,122.799105 C500.578909,122.799105 504,126.222605 504,130.440846 C504,134.659087 500.578909,138.082587 496.363636,138.082587 Z" id="Shape" fill="#7DB5FF"></path>
                <path d="M252,428.468756 C251.236364,428.468756 250.457455,428.361772 249.709091,428.117236 C245.677091,426.848707 243.447273,422.554048 244.730182,418.534492 L336.366545,128.148323 C337.634182,124.128768 341.956364,121.866812 345.942545,123.165908 C349.974545,124.434437 352.204364,128.729096 350.921455,132.748652 L259.285091,423.134821 C258.261818,426.390202 255.237818,428.468756 252,428.468756 Z" id="Shape" fill="#7DB5FF"></path>
                <path d="M252,428.468756 C248.762182,428.468756 245.738182,426.390202 244.714909,423.119537 L153.078545,132.733368 C151.810909,128.713812 154.040727,124.419154 158.057455,123.150625 C162.089455,121.851529 166.365818,124.113484 167.633455,128.13304 L259.269818,418.519209 C260.537455,422.538765 258.307636,426.833423 254.290909,428.101952 C253.542545,428.361772 252.763636,428.468756 252,428.468756 Z" id="Shape" fill="#7DB5FF"></path>
                <path d="M160.363636,138.082587 C157.553455,138.082587 154.865455,136.538955 153.521455,133.864346 L92.4305455,11.5964854 C90.552,7.82146523 92.0792727,3.23642046 95.8516364,1.34126862 C99.6392727,-0.538599733 104.205818,0.989748524 106.099636,4.76476872 L167.190545,127.032629 C169.084364,130.807649 167.541818,135.392694 163.769455,137.287846 C162.685091,137.822768 161.524364,138.082587 160.363636,138.082587 Z" id="Shape" fill="#7DB5FF"></path>
                <path d="M160.363636,138.082587 C158.775273,138.082587 157.171636,137.578232 155.797091,136.554239 C152.421818,134.017181 151.734545,129.233451 154.269818,125.855801 L245.906182,3.58794056 C248.441455,0.210290913 253.221818,-0.46218232 256.597091,2.0595923 C259.972364,4.59665041 260.659636,9.38038045 258.124364,12.7580301 L166.488,135.025891 C164.976,137.028027 162.685091,138.082587 160.363636,138.082587 Z" id="Shape" fill="#7DB5FF"></path>
                <path d="M343.636364,138.082587 C341.314909,138.082587 339.024,137.028027 337.527273,135.025891 L245.890909,12.7580301 C243.355636,9.38038045 244.042909,4.59665041 247.418182,2.0595923 C250.778182,-0.492749286 255.573818,0.19500743 258.109091,3.58794056 L349.745455,125.855801 C352.280727,129.233451 351.593455,134.017181 348.218182,136.554239 C346.843636,137.593516 345.24,138.082587 343.636364,138.082587 Z" id="Shape" fill="#7DB5FF"></path>
                <path d="M343.636364,138.082587 C342.490909,138.082587 341.330182,137.822768 340.230545,137.272563 C336.458182,135.377411 334.930909,130.792366 336.809455,127.017346 L397.900364,4.74948524 C399.794182,0.974465041 404.360727,-0.553883216 408.148364,1.32598514 C411.920727,3.22113698 413.448,7.80618175 411.569455,11.5812019 L350.478545,133.849062 C349.119273,136.538955 346.431273,138.082587 343.636364,138.082587 Z" id="Shape" fill="#7DB5FF"></path>
            </g>
        </g>
    </g>
</svg>