<?xml version="1.0" encoding="UTF-8"?>
<svg width="512px" height="433px" viewBox="0 0 512 433" version="1.1" xmlns="http://www.w3.org/2000/svg" xmlns:xlink="http://www.w3.org/1999/xlink">
    <!-- Generator: Sketch 44.1 (41455) - http://www.bohemiancoding.com/sketch -->
    <title>Group 3</title>
    <desc>Created with Sketch.</desc>
    <defs>
        <radialGradient cx="50%" cy="-18.3090884%" fx="50%" fy="-18.3090884%" r="113.852886%" gradientTransform="translate(0.500000,-0.183091),scale(0.848005,1.000000),rotate(90.000000),translate(-0.500000,0.183091)" id="radialGradient-1">
            <stop stop-color="#12D114FF" offset="0%"></stop>
            <stop stop-color="#FFFFFF" offset="19.4704608%"></stop>
            <stop stop-color="#0089FF" offset="100%"></stop>
        </radialGradient>
    </defs>
    <g id="Page-1" stroke="none" stroke-width="1" fill="none" fill-rule="evenodd">
        <g id="Group-3" fill-rule="nonzero">
            <g id="Group" fill="#575757">
                <g id="home">
                    <polygon id="Shape" points="512 256 416 160 416 16 352 16 352 96 256 0 0 256 0 272 64 272 64 432 224 432 224 336 288 336 288 432 448 432 448 272 512 272"></polygon>
                </g>
            </g>
            <g id="Group-2" transform="translate(67.000000, 54.000000)" fill="#000000">
                <g id="robot">
                    <path d="M173.021643,65.9134297 L147.480596,65.9134297 C142.930375,65.9134297 139.241787,69.6020176 139.241787,74.1522383 C139.241787,78.702459 142.930375,82.3910469 147.480596,82.3910469 L173.021643,82.3910469 C177.571863,82.3910469 181.260451,78.702459 181.260451,74.1522383 C181.260451,69.6020176 177.571863,65.9134297 173.021643,65.9134297 Z" id="Shape"></path>
                    <path d="M214.217166,49.4350723 C200.587971,49.4350723 189.5,60.523043 189.5,74.1522383 C189.5,87.7814336 200.587971,98.8694043 214.217166,98.8694043 C227.846361,98.8694043 238.934332,87.7814336 238.934332,74.1522383 C238.935072,60.523043 227.846361,49.4350723 214.217166,49.4350723 Z M214.217166,82.3910469 C209.674348,82.3910469 205.978357,78.6950566 205.978357,74.1522383 C205.978357,69.6094199 209.674348,65.9134297 214.217166,65.9134297 C218.759984,65.9134297 222.455975,69.6094199 222.455975,74.1522383 C222.456715,78.6950566 218.760725,82.3910469 214.217166,82.3910469 Z" id="Shape"></path>
                    <path d="M354.282834,205.346938 C368.48127,201.679076 379,188.761986 379,173.433953 C379,155.261939 364.216039,140.477238 346.043285,140.477238 L321.326119,140.477238 C320.898757,140.488095 296.181344,140.488095 247.173881,140.477238 L247.173881,131.826119 L263.652238,131.826119 C268.201719,131.826119 271.891047,128.137531 271.891047,123.587311 L271.891047,65.295334 C271.891047,29.2910742 242.599232,5.68434189e-14 206.596453,5.68434189e-14 L172.404287,5.68434189e-14 C136.400027,5.68434189e-14 107.108953,29.2910742 107.108953,65.295334 L107.108953,123.587311 C107.108953,128.137531 110.797541,131.826119 115.347762,131.826119 L131.826119,131.826119 L131.826119,140.477238 L58.6354453,140.477238 C58.2090703,140.487602 49.6494935,140.487602 32.9567148,140.477238 C14.7839609,140.477238 8.52651283e-14,155.261199 8.52651283e-14,173.433953 C8.52651283e-14,188.761986 10.5187305,201.679076 24.717166,205.347678 L41.1947832,206.389928 L49.4335918,206.389928 L49.4335918,239.072016 C49.4335918,288.969734 90.0287852,329.564928 139.926504,329.564928 L148.302996,329.564928 L148.302996,337.803736 C148.304477,360.519309 166.784428,379 189.5,379 C212.215572,379 230.695523,360.519309 230.695523,337.804477 L230.695523,329.565668 L239.072016,329.565668 C288.969734,329.565668 329.564928,288.970475 329.564928,239.072756 L329.564928,206.390668 L337.803736,206.390668 L354.282834,205.346938 Z M49.4350723,189.912311 L32.9567148,189.912311 C23.8703379,189.912311 16.4783574,182.52033 16.4783574,173.433953 C16.4783574,164.347576 23.8703379,156.955596 32.9567148,156.955596 L49.4350723,156.955596 L49.4350723,189.912311 Z M123.587311,115.347762 L123.587311,65.295334 C123.587311,38.3781914 145.487145,16.4783574 172.404287,16.4783574 L206.596453,16.4783574 C233.514336,16.4783574 255.41343,38.3781914 255.41343,65.295334 L255.41343,115.347762 L238.935072,115.347762 L140.064928,115.347762 L123.587311,115.347762 Z M230.695523,131.826119 L230.695523,140.477238 L148.304477,140.477238 L148.304477,131.826119 L230.695523,131.826119 Z M214.217166,337.804477 C214.217166,351.433672 203.129195,362.521643 189.5,362.521643 C175.870805,362.521643 164.782834,351.433672 164.782834,337.804477 L164.782834,329.565668 L214.217906,329.565668 L214.217906,337.804477 L214.217166,337.804477 Z M313.087311,198.151119 L313.087311,239.072756 C313.087311,279.884098 279.884098,313.087311 239.072756,313.087311 L222.456715,313.087311 L156.544025,313.087311 L139.927984,313.087311 C99.1159023,313.087311 65.9134297,279.884098 65.9134297,239.072756 L65.9134297,198.151119 L65.9134297,156.955596 L140.065668,156.955596 L238.935072,156.955596 L313.087311,156.955596 L313.087311,198.151119 Z M329.564928,189.912311 L329.564928,156.955596 L346.043285,156.955596 C355.129662,156.955596 362.521643,164.347576 362.521643,173.433953 C362.521643,182.52033 355.129662,189.912311 346.043285,189.912311 L329.564928,189.912311 Z" id="Shape"></path>
                    <path d="M255.247617,204.371309 C255.149166,203.844262 254.984094,203.324617 254.777568,202.830881 C254.571783,202.328262 254.316402,201.85007 254.019568,201.405189 C253.723475,200.952166 253.377785,200.531713 252.998045,200.152713 C252.619045,199.773713 252.198592,199.428023 251.745568,199.131189 C251.300688,198.834355 250.822496,198.578975 250.319877,198.373189 C249.8254,198.167404 249.307236,198.002332 248.780189,197.903881 C247.717213,197.689953 246.629809,197.689953 245.566832,197.903881 C245.039785,198.003072 244.520141,198.167404 244.026404,198.373189 C243.523785,198.578975 243.047074,198.834355 242.602193,199.131189 C242.14843,199.428023 241.727977,199.773713 241.348977,200.152713 C240.969977,200.531713 240.624287,200.952166 240.327453,201.405189 C240.031359,201.85007 239.775238,202.328262 239.569453,202.830881 C239.363668,203.325357 239.198596,203.844262 239.100885,204.371309 C238.992811,204.898355 238.935813,205.442428 238.935813,205.977617 C238.935813,206.512807 238.992811,207.056879 239.100885,207.583926 C239.198596,208.110973 239.363668,208.630617 239.569453,209.124354 C239.775238,209.626973 240.031359,210.105164 240.327453,210.550045 C240.624287,211.003068 240.969977,211.423521 241.348977,211.802521 C241.727977,212.181521 242.14843,212.527211 242.602193,212.824045 C243.047074,213.120879 243.523785,213.37626 244.026404,213.582045 C244.521621,213.78783 245.039785,213.952902 245.566832,214.051354 C246.093879,214.158688 246.637951,214.216426 247.173141,214.216426 C247.70759,214.216426 248.252402,214.158688 248.779449,214.051354 C249.306496,213.952162 249.826141,213.78783 250.319137,213.582045 C250.821756,213.37626 251.299947,213.120879 251.744828,212.824045 C252.197852,212.527211 252.618305,212.181521 252.997305,211.802521 C253.377045,211.423521 253.723475,211.003068 254.018828,210.550045 C254.315662,210.105164 254.571043,209.626973 254.776828,209.124354 C254.982613,208.629877 255.147686,208.110973 255.246137,207.583926 C255.353471,207.056879 255.411209,206.512807 255.411209,205.977617 C255.411949,205.442428 255.354211,204.899096 255.247617,204.371309 Z" id="Shape"></path>
                    <path d="M288.369404,173.433953 L205.978357,173.433953 C201.428877,173.433953 197.739549,177.122541 197.739549,181.672762 L197.739549,205.978357 C197.739549,210.528578 201.428877,214.217166 205.978357,214.217166 L222.456715,214.217166 C227.006195,214.217166 230.695523,210.528578 230.695523,205.978357 C230.695523,201.428137 227.006195,197.739549 222.456715,197.739549 L214.217906,197.739549 L214.217906,189.912311 L280.130596,189.912311 L280.130596,197.739549 L271.891787,197.739549 C267.342307,197.739549 263.652979,201.428137 263.652979,205.978357 C263.652979,210.528578 267.342307,214.217166 271.891787,214.217166 L288.370145,214.217166 C292.919625,214.217166 296.608953,210.528578 296.608953,205.978357 L296.608953,181.672762 C296.608953,177.122541 292.918885,173.433953 288.369404,173.433953 Z" id="Shape"></path>
                </g>
            </g>
            <g id="diamond" transform="translate(256.000000, 301.500000) rotate(-360.000000) translate(-256.000000, -301.500000) translate(155.000000, 216.000000)">
                <path d="M100.600222,170.667098 C99.7039652,170.667098 98.8442906,170.271019 98.2711742,169.582451 L0.71944401,53.8054973 C-0.19510346,52.72085 -0.243879325,51.1487208 0.609698314,50.0153254 L37.1915971,1.26713435 C37.7647135,0.499350343 38.673164,0.0484295754 39.6303904,0.0484295754 L161.570053,0.0484295754 C162.527279,0.0484295754 163.43573,0.499350343 164.008846,1.26713435 L200.590745,50.0153254 C201.444323,51.1487208 201.395547,52.72085 200.480999,53.8054973 L102.929269,169.582451 C102.356153,170.271019 101.496478,170.667098 100.600222,170.667098 Z" id="Shape" fill="url(#radialGradient-1)"></path>
                <path d="M100.600222,170.667098 C99.7039652,170.667098 98.8442906,170.271019 98.2711742,169.582451 L0.71944401,53.8054973 C-0.19510346,52.72085 -0.243879325,51.1487208 0.609698314,50.0153254 L37.1915971,1.26713435 C37.7647135,0.499350343 38.673164,0.0484295754 39.6303904,0.0484295754 L161.570053,0.0484295754 C162.527279,0.0484295754 163.43573,0.499350343 164.008846,1.26713435 L200.590745,50.0153254 C201.444323,51.1487208 201.395547,52.72085 200.480999,53.8054973 L102.929269,169.582451 C102.356153,170.271019 101.496478,170.667098 100.600222,170.667098 Z M6.94446379,51.7336991 L100.600222,162.891762 L194.25598,51.7336991 L160.045807,6.14195346 L41.1546362,6.14195346 L6.94446379,51.7336991 Z" id="Shape" fill="#7DB5FF"></path>
                <path d="M198.151952,54.8901445 L3.04849157,54.8901445 C1.36572422,54.8901445 0,53.5312887 0,51.8433826 C0,50.1554764 1.36572422,48.7966206 3.04849157,48.7966206 L198.151952,48.7966206 C199.834719,48.7966206 201.200443,50.16157 201.200443,51.8433826 C201.200443,53.5251952 199.834719,54.8901445 198.151952,54.8901445 Z" id="Shape" fill="#7DB5FF"></path>
                <path d="M100.600222,170.667098 C100.295373,170.667098 99.9844265,170.624444 99.6856743,170.526947 C98.0760707,170.021185 97.1859112,168.308905 97.6980578,166.706308 L134.279957,50.929354 C134.786006,49.3267572 136.511452,48.4249157 138.102765,48.9428652 C139.712369,49.4486277 140.602528,51.1609079 140.090382,52.7635047 L103.508483,168.540458 C103.099985,169.838379 101.892782,170.667098 100.600222,170.667098 Z" id="Shape" fill="#7DB5FF"></path>
                <path d="M100.600222,170.667098 C99.3076613,170.667098 98.1004587,169.838379 97.6919608,168.534365 L61.110062,52.7574111 C60.6040124,51.1548144 61.4941719,49.4425342 63.0976785,48.9367717 C64.707282,48.4188221 66.4144373,49.3206637 66.9204869,50.9232605 L103.502386,166.700214 C104.008435,168.302811 103.118276,170.015091 101.514769,170.520854 C101.216017,170.624444 100.905071,170.667098 100.600222,170.667098 Z" id="Shape" fill="#7DB5FF"></path>
                <path d="M64.0183229,54.8901445 C62.896478,54.8901445 61.823409,54.2746986 61.2868745,53.2083319 L36.8989419,4.46014087 C36.149013,2.95504047 36.7587113,1.1269833 38.2646662,0.371386341 C39.776718,-0.378117096 41.5997159,0.231235292 42.3557418,1.73633569 L66.7436744,50.4845267 C67.4997003,51.9896271 66.883905,53.8176843 65.3779502,54.5732813 C64.9450644,54.7865546 64.4816937,54.8901445 64.0183229,54.8901445 Z" id="Shape" fill="#7DB5FF"></path>
                <path d="M64.0183229,54.8901445 C63.3842367,54.8901445 62.7440535,54.6890582 62.195325,54.2807921 C60.8478917,53.2692672 60.5735275,51.3619942 61.5856267,50.0153254 L98.1675255,1.26713435 C99.1796247,-0.0795344261 101.08798,-0.347649477 102.435414,0.657781964 C103.782847,1.66930693 104.057211,3.5765799 103.045112,4.92324868 L66.4632132,53.6714397 C65.8596118,54.4696914 64.9450644,54.8901445 64.0183229,54.8901445 Z" id="Shape" fill="#7DB5FF"></path>
                <path d="M137.182121,54.8901445 C136.255379,54.8901445 135.340832,54.4696914 134.743327,53.6714397 L98.1614285,4.92324868 C97.1493293,3.5765799 97.4236935,1.66930693 98.7711268,0.657781964 C100.112463,-0.359836525 102.026916,-0.08562795 103.039015,1.26713435 L139.620914,50.0153254 C140.633013,51.3619942 140.358649,53.2692672 139.011216,54.2807921 C138.462487,54.6951517 137.822304,54.8901445 137.182121,54.8901445 Z" id="Shape" fill="#7DB5FF"></path>
                <path d="M137.182121,54.8901445 C136.724847,54.8901445 136.261476,54.7865546 135.822493,54.5671877 C134.316538,53.8115908 133.70684,51.9835336 134.456769,50.4784332 L158.844702,1.73024217 C159.600728,0.225141768 161.423726,-0.38421062 162.935777,0.365292817 C164.441732,1.12088978 165.05143,2.94894694 164.301502,4.45404734 L139.913569,53.2022384 C139.370938,54.2746986 138.297868,54.8901445 137.182121,54.8901445 Z" id="Shape" fill="#7DB5FF"></path>
            </g>
            <g id="Group-2" transform="translate(97.000000, 246.000000)" fill="#000000">
                <path d="M133.389678,14.0595657 L51.8898484,57.3937935 C55.3170808,71.6522246 48.8502122,87.0039187 35.3163622,94.1999944 C31.2987558,96.3361936 26.3102389,94.811051 24.1740397,90.7934445 C22.0378404,86.7758381 23.5629831,81.7873212 27.5805895,79.651122 C35.6033842,75.3853264 38.6597909,65.3882704 34.3939953,57.3654758 C30.1281997,49.3426811 20.1311438,46.2862744 12.1083491,50.5520699 C8.09074269,52.6882692 3.10222577,51.1631265 0.96602654,47.1455201 C-1.17017268,43.1279137 0.354969993,38.1393967 4.37257641,36.0031975 C17.9064264,28.8071218 34.2497846,32.0304032 44.1547293,42.8445736 L124.733653,-2.13162821e-14 L133.389678,14.0595657 Z" id="Path-Copy-2" transform="translate(66.694838, 47.583011) scale(-1, 1) translate(-66.694838, -47.583011) "></path>
                <path d="M317.389679,14.0595657 L235.889849,57.3937935 C239.317082,71.6522246 232.850213,87.0039187 219.316363,94.1999944 C215.298757,96.3361936 210.31024,94.811051 208.174041,90.7934445 C206.037841,86.7758381 207.562984,81.7873212 211.580591,79.651122 C219.603385,75.3853264 222.659792,65.3882704 218.393996,57.3654758 C214.128201,49.3426811 204.131145,46.2862744 196.10835,50.5520699 C192.090744,52.6882692 187.102227,51.1631265 184.966028,47.1455201 C182.829828,43.1279137 184.354971,38.1393967 188.372577,36.0031975 C201.906427,28.8071218 218.249786,32.0304032 228.15473,42.8445736 L308.733654,-2.13162821e-14 L317.389679,14.0595657 Z" id="Path-Copy"></path>
            </g>
        </g>
    </g>
</svg>