<?xml version="1.0" encoding="UTF-8" standalone="yes"?><svg xmlns="http://www.w3.org/2000/svg" xmlns:xlink="http://www.w3.org/1999/xlink" width="33px" height="29px" viewBox="0 0 33 29" version="1.1" style="zoom: 1;"><!-- Generator: Sketch 44.1 (41455) - http://www.bohemiancoding.com/sketch --><title>diamond</title><desc>Created with Sketch.</desc><defs><radialGradient cx="50%" cy="-18.3090884%" fx="50%" fy="-18.3090884%" r="113.852886%" gradientTransform="translate(0.500000,-0.183091),scale(0.848486,1.000000),rotate(90.000000),translate(-0.500000,0.183091)" id="radialGradient-1"><stop stop-color="#f50605" offset="0%"></stop><stop stop-color="#FFFFFF" offset="19.4704608%"></stop><stop stop-color="#f71a08" offset="100%"></stop></radialGradient></defs><g id="Page-1" stroke="none" stroke-width="1" fill="none" fill-rule="evenodd"><g id="diamond" fill-rule="nonzero"><path d="M16.5,28.5 C16.353001,28.5 16.212,28.434999 16.118,28.322001 L0.118,9.322 C-0.032,9.144 -0.04,8.886 0.1,8.7 L6.1,0.7 C6.194,0.574 6.343,0.5 6.5,0.5 L26.5,0.5 C26.657,0.5 26.806,0.574 26.9,0.7 L32.900002,8.7 C33.040001,8.886 33.032001,9.144 32.882,9.322 L16.882,28.322001 C16.788,28.434999 16.646999,28.5 16.5,28.5  Z " id="Shape" fill="url(#radialGradient-1)"></path><path d="M16.5,28.5 C16.353,28.5 16.212,28.435 16.118,28.322 L0.118,9.322 C-0.032,9.144 -0.04,8.886 0.1,8.7 L6.1,0.7 C6.194,0.574 6.343,0.5 6.5,0.5 L26.5,0.5 C26.657,0.5 26.806,0.574 26.9,0.7 L32.9,8.7 C33.04,8.886 33.032,9.144 32.882,9.322 L16.882,28.322 C16.788,28.435 16.647,28.5 16.5,28.5  Z M1.139,8.982 L16.5,27.224 L31.861,8.982 L26.25,1.5 L6.75,1.5 L1.139,8.982  Z " id="Shape" fill="#fa130b"></path><path d="M32.5,9.5 L0.5,9.5 C0.224,9.5 0,9.277 0,9 C0,8.723 0.224,8.5 0.5,8.5 L32.5,8.5 C32.776,8.5 33,8.724 33,9 C33,9.276 32.776,9.5 32.5,9.5  Z " id="Shape" fill="#fa0608"></path><path d="M16.5,28.5 C16.45,28.5 16.399,28.493 16.35,28.477 C16.086,28.394 15.94,28.113 16.024,27.85 L22.024,8.85 C22.107,8.587 22.39,8.439 22.651,8.524 C22.915,8.607 23.061,8.888 22.977,9.151 L16.977,28.151 C16.91,28.364 16.712,28.5 16.5,28.5  Z " id="Shape" fill="#fa0203"></path><path d="M16.5,28.5 C16.288,28.5 16.09,28.364 16.023,28.15 L10.023,9.15 C9.94,8.887 10.086,8.606 10.349,8.523 C10.613,8.438 10.893,8.586 10.976,8.849 L16.976,27.849 C17.059,28.112 16.913,28.393 16.65,28.476 C16.601,28.493 16.55,28.5 16.5,28.5  Z " id="Shape" fill="#fa0412"></path><path d="M10.5,9.5 C10.316,9.5 10.14,9.399 10.052,9.224 L6.052,1.224 C5.929,0.977 6.029,0.677 6.276,0.553 C6.524,0.43 6.823,0.53 6.947,0.777 L10.947,8.777 C11.071,9.024 10.97,9.324 10.723,9.448 C10.652,9.483 10.576,9.5 10.5,9.5  Z " id="Shape" fill="#fa0513"></path><path d="M10.5,9.5 C10.396,9.5 10.291,9.467 10.201,9.4 C9.98,9.234 9.935,8.921 10.101,8.7 L16.101,0.7 C16.267,0.479 16.58,0.435 16.801,0.6 C17.022,0.766 17.067,1.079 16.901,1.3 L10.901,9.3 C10.802,9.431 10.652,9.5 10.5,9.5  Z " id="Shape" fill="#fa0315"></path><path d="M22.5,9.5 C22.348,9.5 22.198,9.431 22.1,9.3 L16.1,1.3 C15.934,1.079 15.979,0.766 16.2,0.6 C16.42,0.433 16.734,0.478 16.9,0.7 L22.9,8.7 C23.066,8.921 23.021,9.234 22.8,9.4 C22.71,9.468 22.605,9.5 22.5,9.5  Z " id="Shape" fill="#fa0117"></path><path d="M22.5,9.5 C22.425,9.5 22.349,9.483 22.277,9.447 C22.03,9.323 21.93,9.023 22.053,8.776 L26.053,0.776 C26.177,0.529 26.476,0.429 26.724,0.552 C26.971,0.676 27.071,0.976 26.948,1.223 L22.948,9.223 C22.859,9.399 22.683,9.5 22.5,9.5  Z " id="Shape" fill="#fa0516"></path></g></g></svg>