<?xml version="1.0" encoding="UTF-8"?>
<svg width="295px" height="263px" viewBox="0 0 295 263" version="1.1" xmlns="http://www.w3.org/2000/svg" xmlns:xlink="http://www.w3.org/1999/xlink">
    <!-- Generator: Sketch 44.1 (41455) - http://www.bohemiancoding.com/sketch -->
    <title>robot</title>
    <desc>Created with Sketch.</desc>
    <defs></defs>
    <g id="Page-1" stroke="none" stroke-width="1" fill="#94a3b8" >
        <g id="robot" >
            <path fill="#94a3b8" d="M134.673838,51.3046484 L114.793604,51.3046484 C111.251875,51.3046484 108.380811,54.1757129 108.380811,57.7174414 C108.380811,61.2591699 111.251875,64.1302344 114.793604,64.1302344 L134.673838,64.1302344 C138.215566,64.1302344 141.086631,61.2591699 141.086631,57.7174414 C141.086631,54.1757129 138.215566,51.3046484 134.673838,51.3046484 Z" id="Shape"></path>
            <path fill="#94a3b8" d="M166.738955,38.4784863 C156.130479,38.4784863 147.5,47.1089648 147.5,57.7174414 C147.5,68.325918 156.130479,76.9563965 166.738955,76.9563965 C177.347432,76.9563965 185.97791,68.325918 185.97791,57.7174414 C185.978486,47.1089648 177.347432,38.4784863 166.738955,38.4784863 Z M166.738955,64.1302344 C163.202988,64.1302344 160.326162,61.2534082 160.326162,57.7174414 C160.326162,54.1814746 163.202988,51.3046484 166.738955,51.3046484 C170.274922,51.3046484 173.151748,54.1814746 173.151748,57.7174414 C173.152324,61.2534082 170.275498,64.1302344 166.738955,64.1302344 Z" id="Shape"></path>
            <path fill="#94a3b8" d="M275.761045,231.681592 L275.761045,159.834687 C286.812598,156.979756 295,146.925557 295,134.994766 C295,120.850322 283.492695,109.342441 269.347676,109.342441 L250.108721,109.342441 C249.776077,109.350892 230.53693,109.350892 192.391279,109.342441 L192.391279,102.608721 L205.217441,102.608721 C208.758594,102.608721 211.630234,99.7376562 211.630234,96.1959277 L211.630234,50.8235449 C211.630234,22.7991211 188.830537,0 160.807266,0 L134.193311,0 C106.168887,0 83.3697656,22.7991211 83.3697656,50.8235449 L83.3697656,96.1959277 C83.3697656,99.7376562 86.2408301,102.608721 89.7825586,102.608721 L102.608721,102.608721 L102.608721,109.342441 L45.6397266,109.342441 C45.3078516,109.350508 38.6453841,109.350508 25.6523242,109.342441 C11.5073047,109.342441 0,120.849746 0,134.994766 C0,146.925557 8.18740234,156.979756 19.2389551,159.835264 L19.2389551,231.681592 C8.18740234,234.536523 0,244.590723 0,256.521514 C0,260.063242 2.87106445,262.934307 6.41279297,262.934307 C9.95452148,262.934307 12.8255859,260.063242 12.8255859,256.521514 C12.8255859,249.449004 18.5792383,243.695352 25.651748,243.695352 C32.7242578,243.695352 38.4779102,249.449004 38.4779102,256.521514 C38.4779102,260.063242 41.3489746,262.934307 44.8907031,262.934307 C48.4324316,262.934307 51.3034961,260.063242 51.3034961,256.521514 C51.3034961,244.590723 43.1160937,234.536523 32.064541,231.681016 L32.064541,160.646514 L38.477334,160.646514 L38.477334,186.085078 C38.477334,224.923672 70.0751758,256.521514 108.91377,256.521514 L115.43373,256.521514 L179.565117,256.52209 L186.085078,256.52209 C224.923672,256.52209 256.521514,224.924248 256.521514,186.085654 L256.521514,160.64709 L262.934307,160.64709 L262.934307,231.681592 C251.882754,234.536523 243.695352,244.591299 243.695352,256.52209 C243.695352,260.063818 246.566992,262.934883 250.108145,262.934883 C253.649297,262.934883 256.520937,260.063818 256.520937,256.52209 C256.520937,249.44958 262.27459,243.695928 269.3471,243.695928 C276.419609,243.695928 282.173262,249.44958 282.173262,256.52209 C282.173262,260.063818 285.044902,262.934883 288.586055,262.934883 C292.127207,262.934883 294.998848,260.063818 294.998848,256.52209 C295,244.590723 286.812598,234.536523 275.761045,231.681592 Z M38.4784863,147.820928 L25.6523242,147.820928 C18.5798145,147.820928 12.8261621,142.067275 12.8261621,134.994766 C12.8261621,127.922256 18.5798145,122.168604 25.6523242,122.168604 L38.4784863,122.168604 L38.4784863,147.820928 Z M96.1959277,89.7825586 L96.1959277,50.8235449 C96.1959277,29.872207 113.241973,12.8261621 134.193311,12.8261621 L160.807266,12.8261621 C181.75918,12.8261621 198.804648,29.872207 198.804648,50.8235449 L198.804648,89.7825586 L185.978486,89.7825586 L109.021514,89.7825586 L96.1959277,89.7825586 Z M179.565117,102.608721 L179.565117,109.342441 L115.434883,109.342441 L115.434883,102.608721 L179.565117,102.608721 Z M243.695928,154.233721 L243.695928,186.085654 C243.695928,217.851738 217.851738,243.695928 186.085654,243.695928 L173.152324,243.695928 L121.848252,243.695928 L108.914922,243.695928 C77.1482617,243.695928 51.3046484,217.851738 51.3046484,186.085654 L51.3046484,154.233721 L51.3046484,122.168604 L109.02209,122.168604 L185.978486,122.168604 L243.695928,122.168604 L243.695928,154.233721 Z M256.521514,147.820928 L256.521514,122.168604 L269.347676,122.168604 C276.420186,122.168604 282.173838,127.922256 282.173838,134.994766 C282.173838,142.067275 276.420186,147.820928 269.347676,147.820928 L256.521514,147.820928 Z" id="Shape"></path>
            <path fill="#94a3b8" d="M198.675586,159.075293 C198.598955,158.665059 198.470469,158.260586 198.309717,157.876279 C198.149541,157.485059 197.950762,157.112852 197.719717,156.766572 C197.489248,156.413955 197.220176,156.086689 196.9246,155.791689 C196.6296,155.496689 196.302334,155.227617 195.949717,154.996572 C195.603437,154.765527 195.23123,154.566748 194.84001,154.406572 C194.455127,154.246396 194.051807,154.11791 193.641572,154.041279 C192.814189,153.874766 191.967793,153.874766 191.14041,154.041279 C190.730176,154.118486 190.325703,154.246396 189.941396,154.406572 C189.550176,154.566748 189.179121,154.765527 188.832842,154.996572 C188.479648,155.227617 188.152383,155.496689 187.857383,155.791689 C187.562383,156.086689 187.293311,156.413955 187.062266,156.766572 C186.831797,157.112852 186.632441,157.485059 186.472266,157.876279 C186.31209,158.261162 186.183604,158.665059 186.107549,159.075293 C186.023428,159.485527 185.979062,159.909014 185.979062,160.325586 C185.979062,160.742158 186.023428,161.165645 186.107549,161.575879 C186.183604,161.986113 186.31209,162.390586 186.472266,162.774893 C186.632441,163.166113 186.831797,163.53832 187.062266,163.8846 C187.293311,164.237217 187.562383,164.564482 187.857383,164.859482 C188.152383,165.154482 188.479648,165.423555 188.832842,165.6546 C189.179121,165.885645 189.550176,166.084424 189.941396,166.2446 C190.326855,166.404775 190.730176,166.533262 191.14041,166.609893 C191.550645,166.693438 191.974131,166.738379 192.390703,166.738379 C192.806699,166.738379 193.230762,166.693438 193.640996,166.609893 C194.05123,166.532686 194.455703,166.404775 194.839434,166.2446 C195.230654,166.084424 195.602861,165.885645 195.949141,165.6546 C196.301758,165.423555 196.629023,165.154482 196.924023,164.859482 C197.2196,164.564482 197.489248,164.237217 197.719141,163.8846 C197.950186,163.53832 198.148965,163.166113 198.309141,162.774893 C198.469316,162.39001 198.597803,161.986113 198.674434,161.575879 C198.757979,161.165645 198.80292,160.742158 198.80292,160.325586 C198.803496,159.909014 198.758555,159.486104 198.675586,159.075293 Z" id="Shape"></path>
            <path fill="#94a3b8" d="M224.456396,134.994766 L160.326162,134.994766 C156.78501,134.994766 153.913369,137.86583 153.913369,141.407559 L153.913369,160.326162 C153.913369,163.867891 156.78501,166.738955 160.326162,166.738955 L173.152324,166.738955 C176.693477,166.738955 179.565117,163.867891 179.565117,160.326162 C179.565117,156.784434 176.693477,153.913369 173.152324,153.913369 L166.739531,153.913369 L166.739531,147.820928 L218.043604,147.820928 L218.043604,153.913369 L211.630811,153.913369 C208.089658,153.913369 205.218018,156.784434 205.218018,160.326162 C205.218018,163.867891 208.089658,166.738955 211.630811,166.738955 L224.456973,166.738955 C227.998125,166.738955 230.869766,163.867891 230.869766,160.326162 L230.869766,141.407559 C230.869766,137.86583 227.997549,134.994766 224.456396,134.994766 Z" id="Shape"></path>
        </g>
    </g>
</svg>
