<svg xmlns="http://www.w3.org/2000/svg" viewBox="0 0 120 160">
  <!-- Body -->
  <rect x="30" y="60" width="60" height="70" rx="5" fill="#4A90E2" />

  <!-- Left Arm -->
  <path d="M30 75 L5 45 Q0 40 5 40 L10 40"
        stroke="#4A90E2"
        stroke-width="15"
        fill="none"
        stroke-linecap="round" />

  <!-- Right Arm -->
  <path d="M90 75 L115 45 Q120 40 115 40 L110 40"
        stroke="#4A90E2"
        stroke-width="15"
        fill="none"
        stroke-linecap="round" />

  <!-- Head -->
  <rect x="35" y="30" width="50" height="40" rx="5" fill="#4A90E2" />

  <!-- Eyes -->
  <circle cx="50" cy="45" r="8" fill="white" />
  <circle cx="70" cy="45" r="8" fill="white" />
  <circle cx="50" cy="45" r="4" fill="black" />
  <circle cx="70" cy="45" r="4" fill="black" />

  <!-- Antenna -->
  <rect x="55" y="20" width="10" height="10" fill="#4A90E2" />
  <circle cx="60" cy="15" r="5" fill="#4A90E2" />

  <!-- Control Panel -->
  <rect x="40" y="80" width="40" height="15" rx="2" fill="white" />
  <circle cx="50" cy="87" r="3" fill="#4A90E2" />
  <circle cx="60" cy="87" r="3" fill="#4A90E2" />
  <circle cx="70" cy="87" r="3" fill="#4A90E2" />

  <!-- Legs -->
  <rect x="40" y="130" width="10" height="30" rx="3" fill="#4A90E2" />
  <rect x="70" y="130" width="10" height="30" rx="3" fill="#4A90E2" />

  <!-- Feet -->
  <rect x="35" y="150" width="20" height="8" rx="3" fill="#4A90E2" />
  <rect x="65" y="150" width="20" height="8" rx="3" fill="#4A90E2" />
</svg>
