<?xml version="1.0" encoding="UTF-8" standalone="no"?>
<!-- Created with Inkscape (http://www.inkscape.org/) -->
<svg xmlns:inkscape="http://www.inkscape.org/namespaces/inkscape" xmlns:rdf="http://www.w3.org/1999/02/22-rdf-syntax-ns#" xmlns="http://www.w3.org/2000/svg" xmlns:cc="http://web.resource.org/cc/" xmlns:dc="http://purl.org/dc/elements/1.1/" xmlns:svg="http://www.w3.org/2000/svg" xmlns:sodipodi="http://sodipodi.sourceforge.net/DTD/sodipodi-0.dtd" xmlns:ns1="http://sozi.baierouge.fr" xmlns:xlink="http://www.w3.org/1999/xlink" id="svg2" viewBox="0 0 720 720" version="1.1" inkscape:version="0.91 r13725">
  <g id="g3784" transform="matrix(2.0048 0 0 2.0048 -391.43 7.5506)">
    <path id="path2865" style="fill:#eec73e" d="m374.82 18.68c-43.392 0-78.594 35.17-78.594 78.563 0 43.392 35.201 78.563 78.594 78.563-42.733-7.535-71.285-48.267-63.75-91 6.7258-38.144 39.933-64.974 77.375-64.937-4.4294-0.77519-8.9736-1.1875-13.625-1.1875z"/>
    <path id="path3706" style="fill:#f0a513" d="m402.11 21.067c-42.733-7.535-83.507 20.988-91.042 63.721s21.024 83.482 63.757 91.017c-40.776-14.841-61.821-59.912-46.98-100.69 13.247-36.397 50.608-57.052 87.476-50.515-4.2275-1.5326-8.631-2.7277-13.212-3.5354z"/>
    <path id="path3708" style="fill:#fb8b00" d="m428.56 28.156c-40.776-14.841-85.883 6.1684-100.72 46.944-14.841 40.776 6.2085 85.864 46.984 100.71-37.579-21.696-50.478-69.737-28.782-107.32 19.366-33.543 59.747-47.397 94.919-34.557-3.8971-2.2434-8.0263-4.185-12.397-5.7759z"/>
    <path id="path3710" style="fill:#f44800" d="m453.39 39.731c-37.579-21.696-85.649-8.8387-107.35 28.74-21.696 37.579-8.796 85.638 28.783 107.33-33.24-27.892-37.601-77.443-9.7091-110.68 24.897-29.671 67.069-36.302 99.477-17.55-3.4484-2.886-7.1776-5.5152-11.206-7.8409z"/>
    <path id="path3712" style="fill:#ffff99" d="m475.82 55.44c-33.24-27.892-82.81-23.577-110.7 9.664-27.9 33.24-23.54 82.806 9.7 110.71-27.89-33.25-23.58-82.801 9.66-110.69 29.671-24.897 72.354-24.104 101.01-0.0093197-2.8948-3.441-6.1109-6.6778-9.674-9.6677z"/>
    <path id="path3714" style="fill:#ffff00" d="m495.19 74.807c-27.89-33.24-77.46-37.599-110.7-9.707s-37.555 77.465-9.6633 110.71c-21.696-37.579-8.8466-85.633 28.732-107.33 33.543-19.366 75.441-11.174 99.481 17.532-2.2533-3.8914-4.8584-7.6375-7.8483-11.201z"/>
    <path id="path3720" style="fill:#fdca01" d="m510.9 97.243c-21.7-37.579-69.76-50.48-107.34-28.783-37.58 21.696-50.43 69.77-28.74 107.35-14.841-40.776 6.1578-85.868 46.933-100.71 36.397-13.247 76.235 2.0959 94.925 34.54-1.5434-4.2236-3.4584-8.3651-5.7841-12.393z"/>
    <path id="path3722" style="fill:#986601" d="m522.47 122.07c-14.84-40.78-59.93-61.83-100.7-46.989-40.78 14.841-61.79 59.949-46.95 100.73-7.535-42.733 20.975-83.494 63.708-91.029 38.144-6.7258 74.713 15.302 87.485 50.499-0.7865-4.4274-1.9533-8.8386-3.5441-13.209z"/>
    <path id="path3724" style="fill:#f44800" d="m529.56 148.52c-7.535-42.733-48.283-71.293-91.017-63.757-42.733 7.535-71.256 48.309-63.721 91.042 0-43.392 35.155-78.583 78.547-78.583 38.732 2.4e-13 70.921 28.043 77.387 64.923-0.0057425-4.4967-0.38879-9.0435-1.1965-13.624z"/>
    <path id="path3726" style="fill:#fd3301" d="m531.95 175.81c-5e-13 -43.392-35.17-78.594-78.563-78.594-43.392-2.3e-13 -78.562 35.201-78.562 78.594 7.535-42.733 48.267-71.285 91-63.75 38.144 6.7258 64.974 39.933 64.937 77.375 0.77519-4.4294 1.1875-8.9736 1.1875-13.625z"/>
    <path id="path3728" style="fill:#d40000" d="m529.56 203.09c7.535-42.733-20.988-83.507-63.721-91.042s-83.482 21.024-91.017 63.757c14.841-40.776 59.912-61.821 100.69-46.98 36.397 13.247 57.052 50.608 50.515 87.476 1.5326-4.2275 2.7277-8.631 3.5354-13.212z"/>
    <path id="path3730" style="fill:#980101" d="m522.47 229.55c14.841-40.776-6.1684-85.883-46.944-100.72-40.776-14.841-85.864 6.2085-100.71 46.984 21.696-37.579 69.737-50.478 107.32-28.782 33.543 19.366 47.397 59.747 34.557 94.919 2.2434-3.8971 4.185-8.0263 5.7759-12.397z"/>
    <path id="path3732" style="fill:#fdd99b" d="m510.9 254.37c21.696-37.579 8.8387-85.649-28.74-107.35-37.579-21.696-85.638-8.796-107.33 28.783 27.892-33.24 77.443-37.601 110.68-9.7091 29.671 24.897 36.302 67.069 17.55 99.477 2.886-3.4484 5.5152-7.1776 7.8409-11.206z"/>
    <path id="path3734" style="fill:#d9bb7a" d="m495.19 276.8c27.892-33.24 23.577-82.813-9.6633-110.71-33.24-27.892-82.809-23.533-110.7 9.7073 33.24-27.892 82.796-23.582 110.69 9.6583 24.897 29.671 24.104 72.354 0.0093197 101.01 3.441-2.8948 6.6778-6.1109 9.6677-9.674z"/>
    <path id="path3736" style="fill:#816647" d="m475.82 296.17c33.24-27.892 37.599-77.461 9.7073-110.7-27.892-33.24-77.465-37.555-110.71-9.6633 37.579-21.696 85.633-8.8466 107.33 28.732 19.366 33.543 11.174 75.441-17.532 99.481 3.8914-2.2533 7.6375-4.8584 11.201-7.8483z"/>
    <path id="path3738" style="fill:#565248" d="m453.39 311.88c37.579-21.696 50.479-69.755 28.783-107.33-21.696-37.579-69.767-50.436-107.35-28.74 40.776-14.841 85.868 6.1578 100.71 46.933 13.247 36.397-2.0959 76.235-34.54 94.925 4.2236-1.5434 8.3651-3.4584 12.393-5.7841z"/>
    <path id="path3740" style="fill:#aaccee" d="m428.56 323.45c40.776-14.841 61.825-59.93 46.984-100.71-14.841-40.776-59.948-61.785-100.72-46.944 42.733-7.535 83.494 20.975 91.029 63.708 6.7258 38.144-15.302 74.713-50.499 87.485 4.4274-0.7865 8.8386-1.9533 13.209-3.5441z"/>
    <path id="path3742" style="fill:#6699cc" d="m402.11 330.54c42.733-7.535 71.293-48.283 63.757-91.017-7.535-42.733-48.309-71.256-91.042-63.721 43.392-1e-13 78.583 35.155 78.583 78.547-4e-13 38.732-28.043 70.921-64.923 77.387 4.4967-0.0057425 9.0435-0.38879 13.624-1.1965z"/>
    <path id="path3744" style="fill:#336699" d="m374.82 332.93c43.392-8e-13 78.594-35.17 78.594-78.562 3e-13 -43.392-35.201-78.562-78.594-78.562 42.733 7.535 71.285 48.267 63.75 91-6.7258 38.144-39.933 64.974-77.375 64.937 4.4294 0.77519 8.9736 1.1875 13.625 1.1875z"/>
    <path id="path3746" style="fill:#003366" d="m347.54 330.54c42.733 7.535 83.507-20.988 91.042-63.721s-21.024-83.482-63.757-91.017c40.776 14.841 61.821 59.912 46.98 100.69-13.247 36.397-50.608 57.052-87.476 50.515 4.2275 1.5326 8.631 2.7277 13.212 3.5354z"/>
    <path id="path3748" style="fill:#b3defd" d="m321.08 323.45c40.776 14.841 85.883-6.1684 100.72-46.944 14.841-40.776-6.2085-85.864-46.984-100.71 37.579 21.696 50.478 69.737 28.782 107.32-19.366 33.543-59.747 47.397-94.919 34.557 3.8971 2.2434 8.0263 4.185 12.397 5.7759z"/>
    <path id="path3750" style="fill:#0197fd" d="m296.26 311.88c37.579 21.696 85.649 8.8387 107.35-28.74 21.696-37.579 8.796-85.638-28.783-107.33 33.24 27.892 37.601 77.443 9.7091 110.68-24.897 29.671-67.069 36.302-99.477 17.55 3.4484 2.886 7.1776 5.5152 11.206 7.8409z"/>
    <path id="path3752" style="fill:#0169c9" d="m273.82 296.17c33.24 27.892 82.813 23.577 110.71-9.6633 27.892-33.24 23.533-82.809-9.7073-110.7 27.892 33.24 23.582 82.796-9.6583 110.69-29.671 24.897-72.354 24.104-101.01 0.0093197 2.8948 3.441 6.1109 6.6778 9.674 9.6677z"/>
    <path id="path3754" style="fill:#013397" d="m254.46 276.8c27.892 33.24 77.461 37.599 110.7 9.7073 33.24-27.892 37.555-77.465 9.6633-110.71 21.696 37.579 8.8466 85.633-28.732 107.33-33.543 19.366-75.441 11.174-99.481-17.532 2.2533 3.8914 4.8584 7.6375 7.8483 11.201z"/>
    <path id="path3756" style="fill:#ccff99" d="m238.75 254.37c21.696 37.579 69.755 50.479 107.33 28.783 37.579-21.696 50.436-69.767 28.74-107.35 14.841 40.776-6.1578 85.868-46.933 100.71-36.397 13.247-76.235-2.0959-94.925-34.54 1.5434 4.2236 3.4584 8.3651 5.7841 12.393z"/>
    <path id="path3758" style="fill:#98fc66" d="m227.17 229.55c14.841 40.776 59.93 61.825 100.71 46.984 40.776-14.841 61.785-59.948 46.944-100.72 7.535 42.733-20.975 83.494-63.708 91.029-38.144 6.7258-74.713-15.302-87.485-50.499 0.7865 4.4274 1.9533 8.8386 3.5441 13.209z"/>
    <path id="path3760" style="fill:#339900" d="m220.08 203.09c7.535 42.733 48.283 71.293 91.017 63.757 42.733-7.535 71.256-48.309 63.721-91.042 3e-13 43.392-35.155 78.583-78.547 78.583-38.732-3e-13 -70.921-28.043-77.387-64.923 0.0057425 4.4967 0.38879 9.0435 1.1965 13.624z"/>
    <path id="path3762" style="fill:#015a01" d="m217.7 175.81c6e-13 43.392 35.17 78.594 78.562 78.594 43.392-9e-14 78.563-35.201 78.563-78.594-7.535 42.733-48.267 71.285-91 63.75-38.144-6.7258-64.974-39.933-64.937-77.375-0.77519 4.4294-1.1875 8.9736-1.1875 13.625z"/>
    <path id="path3764" style="fill:#002b3d" d="m220.08 148.52c-7.535 42.733 20.988 83.507 63.721 91.042s83.482-21.024 91.017-63.757c-14.841 40.776-59.912 61.821-100.69 46.98-36.397-13.247-57.052-50.608-50.515-87.476-1.5326 4.2275-2.7277 8.631-3.5354 13.212z"/>
    <path id="path3766" style="fill:#ff9bff" d="m227.17 122.07c-14.841 40.776 6.1684 85.883 46.944 100.72 40.776 14.841 85.864-6.2085 100.71-46.984-21.696 37.579-69.737 50.478-107.32 28.782-33.543-19.366-47.397-59.747-34.557-94.919-2.2434 3.8971-4.185 8.0263-5.7759 12.397z"/>
    <path id="path3768" style="fill:#ff00ff" d="m238.75 97.243c-21.696 37.579-8.8387 85.649 28.74 107.35 37.579 21.696 85.638 8.796 107.33-28.783-27.892 33.24-77.443 37.601-110.68 9.7091-29.671-24.897-36.302-67.069-17.55-99.477-2.886 3.4484-5.5152 7.1776-7.8409 11.206z"/>
    <path id="path3774" style="fill:#6600cc" d="m254.46 74.807c-27.892 33.24-23.577 82.813 9.6633 110.71 33.24 27.892 82.809 23.533 110.7-9.7073-33.24 27.892-82.796 23.582-110.69-9.6583-24.897-29.671-24.104-72.354-0.0093197-101.01-3.441 2.8948-6.6778 6.1109-9.6677 9.674z"/>
    <path id="path3776" style="fill:#eeeeee" d="m273.82 55.44c-33.24 27.892-37.599 77.461-9.7073 110.7 27.892 33.24 77.465 37.555 110.71 9.6633-37.579 21.696-85.633 8.8466-107.33-28.732-19.366-33.543-11.174-75.441 17.532-99.481-3.8914 2.2533-7.6375 4.8584-11.201 7.8483z"/>
    <path id="path3778" style="fill:#cccccf" d="m296.26 39.731c-37.58 21.696-50.48 69.759-28.78 107.33 21.696 37.579 69.767 50.436 107.35 28.74-40.776 14.841-85.868-6.1578-100.71-46.933-13.247-36.397 2.0959-76.235 34.54-94.925-4.2236 1.5434-8.3651 3.4584-12.393 5.7841z"/>
    <path id="path3780" style="fill:#aaaaaa" d="m321.08 28.156c-40.776 14.841-61.825 59.93-46.984 100.71 14.841 40.776 59.948 61.785 100.72 46.944-42.733 7.535-83.494-20.975-91.029-63.708-6.7258-38.144 15.302-74.713 50.499-87.485-4.4274 0.7865-8.8386 1.9533-13.209 3.5441z"/>
    <path id="path3782" style="fill:#888888" d="m347.54 21.067c-42.733 7.535-71.293 48.283-63.757 91.017 7.535 42.733 48.309 71.256 91.042 63.721-43.392 1e-13 -78.583-35.155-78.583-78.547 3e-13 -38.732 28.043-70.921 64.923-77.387-4.4967 0.0057425-9.0435 0.38879-13.624 1.1965z"/>
  </g>
  <metadata>
    <rdf:RDF>
      <cc:Work>
        <dc:format>image/svg+xml</dc:format>
        <dc:type rdf:resource="http://purl.org/dc/dcmitype/StillImage"/>
        <cc:license rdf:resource="http://creativecommons.org/licenses/publicdomain/"/>
        <dc:publisher>
          <cc:Agent rdf:about="http://openclipart.org/">
            <dc:title>Openclipart</dc:title>
          </cc:Agent>
        </dc:publisher>
        <dc:title>ubuntu 36 swirl</dc:title>
        <dc:date>2011-08-01T05:34:17</dc:date>
        <dc:description>36 swirl using Ubuntu palette</dc:description>
        <dc:source>https://openclipart.org/detail/153007/ubuntu-36-swirl-by-10binary</dc:source>
        <dc:creator>
          <cc:Agent>
            <dc:title>10binary</dc:title>
          </cc:Agent>
        </dc:creator>
        <dc:subject>
          <rdf:Bag>
            <rdf:li>36</rdf:li>
            <rdf:li>swirl</rdf:li>
            <rdf:li>ubuntu</rdf:li>
          </rdf:Bag>
        </dc:subject>
      </cc:Work>
      <cc:License rdf:about="http://creativecommons.org/licenses/publicdomain/">
        <cc:permits rdf:resource="http://creativecommons.org/ns#Reproduction"/>
        <cc:permits rdf:resource="http://creativecommons.org/ns#Distribution"/>
        <cc:permits rdf:resource="http://creativecommons.org/ns#DerivativeWorks"/>
      </cc:License>
    </rdf:RDF>
  </metadata>
</svg>
